<?xml version="1.0"?><svg version="1.2" baseProfile="tiny-ps" viewBox="0 0 300 300" xmlns="http://www.w3.org/2000/svg" xmlns:xlink="http://www.w3.org/1999/xlink"><title>Headstart Logo</title><g><g fill="#f8fbfa" transform="matrix(.1 0 0 -.1 0 300)"><path d="M0 1500V0h3000v3000H0V1500z"/></g><g fill="#d8e028" transform="matrix(.1 0 0 -.1 0 300)"><path d="m1077 2803-7-6v-727l-427-2-428-3-3-544-2-545 7-7 8-6 175 181c96 100 274 283 395 409l220 227 238-242 237-243 235 240 234 240 88-87c49-49 91-88 95-88 5 0 271 267 303 304 6 7 83 86 173 177l162 166v233h-850v318l-16 6c-9 3-199 6-423 6h-408l-6-7zm1487-1129c-115-119-257-266-315-327l-106-112-82 88c-46 48-87 87-92 87-9 0-74-66-401-405l-77-80-238 244-238 243-398-410-397-411V480h2560v705c0 388-1 705-3 705s-98-97-213-216zM1525 243V125h-40l-3 73-3 72h16c19 0 20 16 0 24l-15 5v44l-20-26-20-25-47 3c-27 2-59 1-73-1l-25-5 2-97 2-97h55l-3 67c-1 38 0 76 4 87l5 18h80V120l23-14 22-15 43 6 42 6v119l35-4 35-4v40l-12-12c-7-7-22-12-35-12h-23v110h68l5-12 5-13 1 23 1 22h-125V243zm152 111c-4-4-7-13-7-21v-13h41l-3 17c-3 18-20 27-31 17zm680-1c-4-3-7-12-7-20v-13h40v40h-13c-8 0-17-3-20-7zm228-1-10-7V100h45v260h-12c-7 0-17-4-23-8zM225 220V89l29 3 30 3-3 58-2 57h73l-4-60-4-60h51l-3 115-4 116 12 14 12 15h-69l5-55 4-55h-74l4 55 5 55h-62V220zm602 124-7-7 7-25 6-24-21 6-21 7-20-11-20-10-12-38-11-38 11-41c6-23 18-49 26-57l15-15 51 4c28 2 54 7 58 11l6 7-12 4-13 5v228h-18c-10 0-22-3-25-6zm-2-97c4-13 5-45 3-72l-3-48-11-4-12-4-11 32c-12 35-15 102-4 112 3 4 12 7 19 7h14l5-23zm231 58-29-29 12-4 11-4V120l25-16 24-16 21 7c25 8 26 25 1 25h-19l-6 16c-3 9-6 42-6 74v58l23 6 22 7-20 8-20 8-5 19-5 19-29-30zm1185-16c-26-25-41-60-41-97v-27l20-32 20-33h66l12 12c7 7 12 16 12 20v8l-24-15-24-16-15 16c-9 9-19 30-22 48l-7 33 9 34 9 33 18 11 17 11 13-17c16-22 26-23 26-3v14l-19 11c-29 15-45 12-70-11zm434 9c-26-15-35-28-35-55v-21l40-32 40-32v-13c0-8-9-19-20-25l-20-10-20 20-20 20v-40l25-6c14-3 36-3 50 0l24 6 12 21 11 21-6 23-6 23-36 21-35 21 3 23 3 22 23 3 22 3v-15c0-9 4-16 10-16h9l-8 23-8 22-19 2c-10 2-28-2-39-9zM453 285l-22-16-11-40-11-40 11-35 12-34 21-15c30-21 52-19 84 10l28 24-17 1c-9 0-20-4-23-10-3-5-14-10-25-10h-18l-11 31c-6 18-11 36-11 40v9h100v60l-20 20-20 20h-23c-12 0-32-7-44-15zm67-41v-14h-50v13c0 7 5 18 12 25l12 12 13-11c7-7 13-18 13-25zm82 40-23-16 13-15 12-15 18 22 17 22 11-7c5-3 10-17 10-30v-25l-34-14-34-14-12-22-11-21 6-19c4-11 14-24 23-29l17-8 48 2c26 1 49 4 51 6s0 44-3 92l-6 88-15 9c-8 5-26 10-40 10h-26l-22-16zm62-149-6-15h-38v49l18 10 17 10 7-20c4-10 5-26 2-34zm253 147-17-19v-52l35-27 35-26v-38h-50v15c0 8-5 15-11 15h-10l3-22 3-23 28-9 27-10 28 21 27 20 4 24 3 24-43 37-43 37 13 15 12 15 15-6c8-3 14-11 14-19s5-14 11-14h10l-3 28-3 27-36 3-35 3-17-19zm248 4-18-13 7-18 7-18 22 21 23 22 12-12c7-7 12-19 12-28v-16l-42-19-43-20-3-32-3-32 23-14 23-14 42 1 43 2 12 13 13 13-12 5-13 5v144l-12 12-12 12h-62l-19-14zm61-152-5-14h-32l-6 17-6 16 24 20 24 19 3-22c2-12 1-28-2-36zm517 159-13-5V100h45l-3 83-3 83 14 13 15 12 17-17 16-17-3-78-3-79h40l-3 87-4 88-10 12-11 13-41-2c-22 0-47-3-53-5zm175-4c-18-10-25-39-10-39 4 0 16 9 25 21l18 21 15-12 14-12v-45l-40-16-40-15-9-24-9-23 10-18c5-10 16-21 25-24l16-6 28 10 29 11v-18h42l-6 23c-3 12-6 50-6 84v62l-16 15-15 16h-27c-15 0-35-5-44-11zm62-123v-34l-15-12-15-12-15 12c-8 7-15 21-15 31v18l22 15c12 9 26 16 30 16h8v-34zm74 125-9-6V100h50l-3 86-4 87 13 8c7 4 18 5 26 2l13-5V100h45l-3 87-4 88-10 12-10 13-48-1c-26-1-52-4-56-8zm381-4-18-14 8-12 7-13 22 21 21 20 11-7c6-4 14-17 18-29l7-23-46-22-46-22-5-22-6-22 12-21 11-21h58l6 10 6 10 19-12 20-12 12 13 13 13-12 5-13 5v144l-12 12-12 12h-62l-19-13zm75-116v-30l-15-15-16-15-14 5-15 6v55l23 11c33 16 37 15 37-17zm-845 24v-95h45v190h-45v-95zm685 0v-95h45l-3 95-3 95h-39v-95z"/></g><g fill="#8ec740" transform="matrix(.1 0 0 -.1 0 300)"><path d="m1077 2803-7-6V1725l210-215 210-215 235 240 234 240 88-87c49-49 91-88 95-88 5 0 271 267 303 304 6 7 83 86 173 177l162 166v233h-850v318l-16 6c-9 3-199 6-423 6h-408l-6-7zm1487-1129c-115-119-257-266-315-327l-106-112-82 88c-46 48-87 87-92 87-9 0-74-66-401-405l-77-80-238 244-238 243-398-410-397-411V480h2560v705c0 388-1 705-3 705s-98-97-213-216zM1525 243V125h-40l-3 73-3 72h16c19 0 20 16 0 24l-15 5v44l-20-26-20-25-47 3c-27 2-59 1-73-1l-25-5 2-97 2-97h55l-3 67c-1 38 0 76 4 87l5 18h80V120l23-14 22-15 43 6 42 6v119l35-4 35-4v40l-12-12c-7-7-22-12-35-12h-23v110h68l5-12 5-13 1 23 1 22h-125V243zm152 111c-4-4-7-13-7-21v-13h41l-3 17c-3 18-20 27-31 17zm680-1c-4-3-7-12-7-20v-13h40v40h-13c-8 0-17-3-20-7zm228-1-10-7V100h45v260h-12c-7 0-17-4-23-8zM225 220V89l29 3 30 3-3 58-2 57h73l-4-60-4-60h51l-3 115-4 116 12 14 12 15h-69l5-55 4-55h-74l4 55 5 55h-62V220zm602 124-7-7 7-25 6-24-21 6-21 7-20-11-20-10-12-38-11-38 11-41c6-23 18-49 26-57l15-15 51 4c28 2 54 7 58 11l6 7-12 4-13 5v228h-18c-10 0-22-3-25-6zm-2-97c4-13 5-45 3-72l-3-48-11-4-12-4-11 32c-12 35-15 102-4 112 3 4 12 7 19 7h14l5-23zm231 58-29-29 12-4 11-4V120l25-16 24-16 21 7c25 8 26 25 1 25h-19l-6 16c-3 9-6 42-6 74v58l23 6 22 7-20 8-20 8-5 19-5 19-29-30zm1185-16c-26-25-41-60-41-97v-27l20-32 20-33h66l12 12c7 7 12 16 12 20v8l-24-15-24-16-15 16c-9 9-19 30-22 48l-7 33 9 34 9 33 18 11 17 11 13-17c16-22 26-23 26-3v14l-19 11c-29 15-45 12-70-11zm434 9c-26-15-35-28-35-55v-21l40-32 40-32v-13c0-8-9-19-20-25l-20-10-20 20-20 20v-40l25-6c14-3 36-3 50 0l24 6 12 21 11 21-6 23-6 23-36 21-35 21 3 23 3 22 23 3 22 3v-15c0-9 4-16 10-16h9l-8 23-8 22-19 2c-10 2-28-2-39-9zM453 285l-22-16-11-40-11-40 11-35 12-34 21-15c30-21 52-19 84 10l28 24-17 1c-9 0-20-4-23-10-3-5-14-10-25-10h-18l-11 31c-6 18-11 36-11 40v9h100v60l-20 20-20 20h-23c-12 0-32-7-44-15zm67-41v-14h-50v13c0 7 5 18 12 25l12 12 13-11c7-7 13-18 13-25zm82 40-23-16 13-15 12-15 18 22 17 22 11-7c5-3 10-17 10-30v-25l-34-14-34-14-12-22-11-21 6-19c4-11 14-24 23-29l17-8 48 2c26 1 49 4 51 6s0 44-3 92l-6 88-15 9c-8 5-26 10-40 10h-26l-22-16zm62-149-6-15h-38v49l18 10 17 10 7-20c4-10 5-26 2-34zm253 147-17-19v-52l35-27 35-26v-38h-50v15c0 8-5 15-11 15h-10l3-22 3-23 28-9 27-10 28 21 27 20 4 24 3 24-43 37-43 37 13 15 12 15 15-6c8-3 14-11 14-19s5-14 11-14h10l-3 28-3 27-36 3-35 3-17-19zm248 4-18-13 7-18 7-18 22 21 23 22 12-12c7-7 12-19 12-28v-16l-42-19-43-20-3-32-3-32 23-14 23-14 42 1 43 2 12 13 13 13-12 5-13 5v144l-12 12-12 12h-62l-19-14zm61-152-5-14h-32l-6 17-6 16 24 20 24 19 3-22c2-12 1-28-2-36zm517 159-13-5V100h45l-3 83-3 83 14 13 15 12 17-17 16-17-3-78-3-79h40l-3 87-4 88-10 12-11 13-41-2c-22 0-47-3-53-5zm175-4c-18-10-25-39-10-39 4 0 16 9 25 21l18 21 15-12 14-12v-45l-40-16-40-15-9-24-9-23 10-18c5-10 16-21 25-24l16-6 28 10 29 11v-18h42l-6 23c-3 12-6 50-6 84v62l-16 15-15 16h-27c-15 0-35-5-44-11zm62-123v-34l-15-12-15-12-15 12c-8 7-15 21-15 31v18l22 15c12 9 26 16 30 16h8v-34zm74 125-9-6V100h50l-3 86-4 87 13 8c7 4 18 5 26 2l13-5V100h45l-3 87-4 88-10 12-10 13-48-1c-26-1-52-4-56-8zm381-4-18-14 8-12 7-13 22 21 21 20 11-7c6-4 14-17 18-29l7-23-46-22-46-22-5-22-6-22 12-21 11-21h58l6 10 6 10 19-12 20-12 12 13 13 13-12 5-13 5v144l-12 12-12 12h-62l-19-13zm75-116v-30l-15-15-16-15-14 5-15 6v55l23 11c33 16 37 15 37-17zm-845 24v-95h45v190h-45v-95zm685 0v-95h45l-3 95-3 95h-39v-95z"/></g><g fill="#80b1c8" transform="matrix(.1 0 0 -.1 0 300)"><path d="M1288 2803c117-2 306-2 420 0 114 1 18 2-213 2s-324-1-207-2zm642-689v-366l16 12 15 13 84-83c46-46 91-85 100-86l15-2-6 9-5 9h15c9 0 16 3 16 8 0 4 133 142 294 307 162 165 292 303 289 308-2 4 1 7 6 7h11v230h-850v-366zm634-440c-115-119-257-266-315-327l-106-112-82 88c-46 48-87 87-92 87-9 0-74-66-401-405l-77-80-238 244-238 243-398-410-397-411V480h2560v705c0 388-1 705-3 705s-98-97-213-216zm-1324-129c19-19 36-35 39-35s-10 16-29 35-36 35-39 35 10-16 29-35zm480-10c-24-25-42-45-39-45s25 20 49 45 42 45 39 45-25-20-49-45zM1525 243V125h-40l-3 73-3 72h16c19 0 20 16 0 24l-15 5v44l-20-26-20-25-47 3c-27 2-59 1-73-1l-25-5 2-97 2-97h55l-3 67c-1 38 0 76 4 87l5 18h80V120l23-14 22-15 43 6 42 6v119l35-4 35-4v40l-12-12c-7-7-22-12-35-12h-23v110h68l5-12 5-13 1 23 1 22h-125V243zm152 111c-4-4-7-13-7-21v-13h41l-3 17c-3 18-20 27-31 17zm680-1c-4-3-7-12-7-20v-13h40v40h-13c-8 0-17-3-20-7zm228-1-10-7V100h45v260h-12c-7 0-17-4-23-8zM225 220V89l29 3 30 3-3 58-2 57h73l-4-60-4-60h51l-3 115-4 116 12 14 12 15h-69l5-55 4-55h-74l4 55 5 55h-62V220zm602 124-7-7 7-25 6-24-21 6-21 7-20-11-20-10-12-38-11-38 11-41c6-23 18-49 26-57l15-15 51 4c28 2 54 7 58 11l6 7-12 4-13 5v228h-18c-10 0-22-3-25-6zm-2-97c4-13 5-45 3-72l-3-48-11-4-12-4-11 32c-12 35-15 102-4 112 3 4 12 7 19 7h14l5-23zm231 58-29-29 12-4 11-4V120l25-16 24-16 21 7c25 8 26 25 1 25h-19l-6 16c-3 9-6 42-6 74v58l23 6 22 7-20 8-20 8-5 19-5 19-29-30zm1185-16c-26-25-41-60-41-97v-27l20-32 20-33h66l12 12c7 7 12 16 12 20v8l-24-15-24-16-15 16c-9 9-19 30-22 48l-7 33 9 34 9 33 18 11 17 11 13-17c16-22 26-23 26-3v14l-19 11c-29 15-45 12-70-11zm434 9c-26-15-35-28-35-55v-21l40-32 40-32v-13c0-8-9-19-20-25l-20-10-20 20-20 20v-40l25-6c14-3 36-3 50 0l24 6 12 21 11 21-6 23-6 23-36 21-35 21 3 23 3 22 23 3 22 3v-15c0-9 4-16 10-16h9l-8 23-8 22-19 2c-10 2-28-2-39-9zM453 285l-22-16-11-40-11-40 11-35 12-34 21-15c30-21 52-19 84 10l28 24-17 1c-9 0-20-4-23-10-3-5-14-10-25-10h-18l-11 31c-6 18-11 36-11 40v9h100v60l-20 20-20 20h-23c-12 0-32-7-44-15zm67-41v-14h-50v13c0 7 5 18 12 25l12 12 13-11c7-7 13-18 13-25zm82 40-23-16 13-15 12-15 18 22 17 22 11-7c5-3 10-17 10-30v-25l-34-14-34-14-12-22-11-21 6-19c4-11 14-24 23-29l17-8 48 2c26 1 49 4 51 6s0 44-3 92l-6 88-15 9c-8 5-26 10-40 10h-26l-22-16zm62-149-6-15h-38v49l18 10 17 10 7-20c4-10 5-26 2-34zm253 147-17-19v-52l35-27 35-26v-38h-50v15c0 8-5 15-11 15h-10l3-22 3-23 28-9 27-10 28 21 27 20 4 24 3 24-43 37-43 37 13 15 12 15 15-6c8-3 14-11 14-19s5-14 11-14h10l-3 28-3 27-36 3-35 3-17-19zm248 4-18-13 7-18 7-18 22 21 23 22 12-12c7-7 12-19 12-28v-16l-42-19-43-20-3-32-3-32 23-14 23-14 42 1 43 2 12 13 13 13-12 5-13 5v144l-12 12-12 12h-62l-19-14zm61-152-5-14h-32l-6 17-6 16 24 20 24 19 3-22c2-12 1-28-2-36zm517 159-13-5V100h45l-3 83-3 83 14 13 15 12 17-17 16-17-3-78-3-79h40l-3 87-4 88-10 12-11 13-41-2c-22 0-47-3-53-5zm175-4c-18-10-25-39-10-39 4 0 16 9 25 21l18 21 15-12 14-12v-45l-40-16-40-15-9-24-9-23 10-18c5-10 16-21 25-24l16-6 28 10 29 11v-18h42l-6 23c-3 12-6 50-6 84v62l-16 15-15 16h-27c-15 0-35-5-44-11zm62-123v-34l-15-12-15-12-15 12c-8 7-15 21-15 31v18l22 15c12 9 26 16 30 16h8v-34zm74 125-9-6V100h50l-3 86-4 87 13 8c7 4 18 5 26 2l13-5V100h45l-3 87-4 88-10 12-10 13-48-1c-26-1-52-4-56-8zm381-4-18-14 8-12 7-13 22 21 21 20 11-7c6-4 14-17 18-29l7-23-46-22-46-22-5-22-6-22 12-21 11-21h58l6 10 6 10 19-12 20-12 12 13 13 13-12 5-13 5v144l-12 12-12 12h-62l-19-13zm75-116v-30l-15-15-16-15-14 5-15 6v55l23 11c33 16 37 15 37-17zm-845 24v-95h45v190h-45v-95zm685 0v-95h45l-3 95-3 95h-39v-95z"/></g><g fill="#039445" transform="matrix(.1 0 0 -.1 0 300)"><path d="M1930 2114v-356l16 12 15 13 88-87 88-88 21 11c11 6 22 15 24 20 3 9 93 102 455 472l143 145v214h-850v-356zm659-425c-101-104-243-252-316-327l-132-137-88 94-89 94-22-28-22-28 2-436 3-436 428-3 427-2v700c0 385-1 700-3 700s-87-86-188-191zM844 342l-20-3 4-28 4-28-30 5-30 4-16-23-16-23v-77l14-34 14-34h107l-3 97c-1 53-4 108-5 122l-2 25-21-3zm-21-84 13-23-2-45c-1-25-2-51-3-57l-1-13h-39l-5 18c-3 9-8 33-11 52l-6 35 10 28c13 33 26 34 44 5zm707-27V113l-22 1-23 1-3 74-3 73 18 14 18 13-17 1h-17l-3 14-3 15-20-17-21-17 6-83 7-84 14-9c8-5 33-9 57-9h42v250h-30V231zm147 113c-8-8 1-24 14-24 5 0 9 7 9 15 0 15-12 20-23 9zm683-9v-17l11 4c6 2 11 8 11 13s-5 11-11 13l-11 4v-17zm230 13c0-2-1-58-3-126l-2-122h25v250h-10c-5 0-10-1-10-2zM235 220V100h40l-3 60-4 60h84l-4-60-3-60h50l-3 120-3 120h-39V230h-80v110h-35V220zm826 79-24-20 11-11 12-12V124l12-12c7-7 22-12 35-12h23v10c0 5-3 9-7 9-5-1-14-1-20 0l-13 1v150h15c8 0 15 5 15 10 0 6-6 10-14 10h-15l-3 14-3 15-24-20zm-594-10c-9-5-24-23-32-39l-15-29v-68l21-27 20-26h56l19 22 19 21-26-16-25-17-22 16-22 15v69h102l-6 16c-3 9-6 20-6 25 0 14-38 49-52 49-7 0-21-5-31-11zm53-24 12-15-6-15-5-15h-52l-5 15-6 15 12 15c7 8 18 15 25 15s18-7 25-15zm89 16-24-19 7-8 8-7 20 18 19 17 16-5 15-6v-53l-40-15-40-16-7-25-6-25 10-16 10-16 57-1 57-1 5 8c2 4 0 10-6 14l-10 6v148l-19 11c-28 15-46 12-72-9zm47-160-16-15-16 16-16 16 6 19 6 20 23 10 22 10 3-30 3-30-15-16zm269 154c-14-13-25-31-25-39v-14l42-35 41-34-6-17c-4-9-14-19-22-22l-16-6-19 17-20 18v-9c0-6 5-15 12-22l12-12h55l15 16 16 15v57l-36 21-35 21 3 23 3 22 22 3 21 3 5-18 5-18 1 21 1 22-16 6c-26 10-34 7-59-19zm259 15c-12-5-25-13-28-19l-6-10 11-6 10-7 13 18 13 17 17-6 16-6v-52l-35-15-36-15-11-24-11-25 18-20 18-20 50 3 49 2-1 8c0 4-1 39-1 77v70l-20 20c-22 22-33 23-66 10zm45-162-10-19-17 3-17 3-3 27-3 26 23 16 23 16 7-26 7-27-10-19zm141 162-14-9-26 5-25 6V100h40l-3 68-3 68 19 24 20 24 16-13 16-13v15c0 19-22 28-40 17zm443-1 17-10V100h30v169l-22 15c-12 9-27 16-33 16-5 0-2-5 8-11zm158-10 20-20-3-17-3-17-32-16c-46-23-63-39-63-59 0-17 29-50 45-50h9l-12 12-12 12v55l30 16c16 8 32 15 35 15s5-20 4-45l-3-45 10-10 9-9 15 9 15 10h-25v159l-19 11c-11 5-24 10-30 10h-11l21-21zm162 3 17-19V100h25l-3 87-3 88-16 13c-9 6-21 12-26 12h-10l16-18zm119 11c-7-3-19-18-27-33l-15-29v-82l25-24c13-14 29-25 35-25h11l-20 26-21 27v107l20 20c20 20 17 23-8 13zm53-9 16-16 7 6 6 7-14 9c-24 15-33 11-15-6zm182 1 21-15 1-66c0-36 3-75 6-86l7-19 10 3c5 2 9 7 9 11-1 4-1 39-1 77v70l-20 20c-11 11-28 20-37 20h-17l21-15zm181 4-18-10v-54l41-36 42-35-12-22-12-22-17-1-17-1 13-5 13-5 24 16 25 16v57l-40 27-40 26v39l18 10c9 6 13 10 7 10-5 0-18-4-27-10zm42 7c0-2 7-6 15-10l15-5v9c0 6-7 10-15 10s-15-2-15-4zm-1025-14-10-7V100h25v95c0 52-1 95-2 95-2 0-7-4-13-8zm55-87v-95h30v190h-30v-95zm170 80-12-15h10c5 0 12 7 16 15 3 8 4 15 2 15s-9-7-16-15zm145-80v-95h30l-2 92-1 93-14 3-13 3v-96zm313 89-8-7V100h25l-3 67c-1 38-4 81-5 96l-2 29-7-8zm67-5c-11-17 1-21 15-4l12 15h-10c-6 0-14-5-17-11zm3-90-18-10v-58l21-11c26-14 35-7 14 10-19 16-19 44 1 64 17 18 8 21-18 5z"/></g><g fill="#185782" transform="matrix(.1 0 0 -.1 0 300)"><path d="M2589 1689c-101-104-243-252-316-327l-132-137-88 94-89 94-22-28-22-28 2-436 3-436 428-3 427-2v700c0 385-1 700-3 700s-87-86-188-191zM844 342l-20-3 4-28 4-28-30 5-30 4-16-23-16-23v-77l14-34 14-34h107l-3 97c-1 53-4 108-5 122l-2 25-21-3zm-21-84 13-23-2-45c-1-25-2-51-3-57l-1-13h-39l-5 18c-3 9-8 33-11 52l-6 35 10 28c13 33 26 34 44 5zm707-27V113l-22 1-23 1-3 74-3 73 18 14 18 13-17 1h-17l-3 14-3 15-20-17-21-17 6-83 7-84 14-9c8-5 33-9 57-9h42v250h-30V231zm147 113c-8-8 1-24 14-24 5 0 9 7 9 15 0 15-12 20-23 9zm683-9v-17l11 4c6 2 11 8 11 13s-5 11-11 13l-11 4v-17zm230 13c0-2-1-58-3-126l-2-122h25v250h-10c-5 0-10-1-10-2zM235 220V100h40l-3 60-4 60h84l-4-60-3-60h50l-3 120-3 120h-39V230h-80v110h-35V220zm826 79-24-20 11-11 12-12V124l12-12c7-7 22-12 35-12h23v10c0 5-3 9-7 9-5-1-14-1-20 0l-13 1v150h15c8 0 15 5 15 10 0 6-6 10-14 10h-15l-3 14-3 15-24-20zm-594-10c-9-5-24-23-32-39l-15-29v-68l21-27 20-26h56l19 22 19 21-26-16-25-17-22 16-22 15v69h102l-6 16c-3 9-6 20-6 25 0 14-38 49-52 49-7 0-21-5-31-11zm53-24 12-15-6-15-5-15h-52l-5 15-6 15 12 15c7 8 18 15 25 15s18-7 25-15zm89 16-24-19 7-8 8-7 20 18 19 17 16-5 15-6v-53l-40-15-40-16-7-25-6-25 10-16 10-16 57-1 57-1 5 8c2 4 0 10-6 14l-10 6v148l-19 11c-28 15-46 12-72-9zm47-160-16-15-16 16-16 16 6 19 6 20 23 10 22 10 3-30 3-30-15-16zm269 154c-14-13-25-31-25-39v-14l42-35 41-34-6-17c-4-9-14-19-22-22l-16-6-19 17-20 18v-9c0-6 5-15 12-22l12-12h55l15 16 16 15v57l-36 21-35 21 3 23 3 22 22 3 21 3 5-18 5-18 1 21 1 22-16 6c-26 10-34 7-59-19zm259 15c-12-5-25-13-28-19l-6-10 11-6 10-7 13 18 13 17 17-6 16-6v-52l-35-15-36-15-11-24-11-25 18-20 18-20 50 3 49 2-1 8c0 4-1 39-1 77v70l-20 20c-22 22-33 23-66 10zm45-162-10-19-17 3-17 3-3 27-3 26 23 16 23 16 7-26 7-27-10-19zm141 162-14-9-26 5-25 6V100h40l-3 68-3 68 19 24 20 24 16-13 16-13v15c0 19-22 28-40 17zm443-1 17-10V100h30v169l-22 15c-12 9-27 16-33 16-5 0-2-5 8-11zm158-10 20-20-3-17-3-17-32-16c-46-23-63-39-63-59 0-17 29-50 45-50h9l-12 12-12 12v55l30 16c16 8 32 15 35 15s5-20 4-45l-3-45 10-10 9-9 15 9 15 10h-25v159l-19 11c-11 5-24 10-30 10h-11l21-21zm162 3 17-19V100h25l-3 87-3 88-16 13c-9 6-21 12-26 12h-10l16-18zm119 11c-7-3-19-18-27-33l-15-29v-82l25-24c13-14 29-25 35-25h11l-20 26-21 27v107l20 20c20 20 17 23-8 13zm53-9 16-16 7 6 6 7-14 9c-24 15-33 11-15-6zm182 1 21-15 1-66c0-36 3-75 6-86l7-19 10 3c5 2 9 7 9 11-1 4-1 39-1 77v70l-20 20c-11 11-28 20-37 20h-17l21-15zm181 4-18-10v-54l41-36 42-35-12-22-12-22-17-1-17-1 13-5 13-5 24 16 25 16v57l-40 27-40 26v39l18 10c9 6 13 10 7 10-5 0-18-4-27-10zm42 7c0-2 7-6 15-10l15-5v9c0 6-7 10-15 10s-15-2-15-4zm-1025-14-10-7V100h25v95c0 52-1 95-2 95-2 0-7-4-13-8zm55-87v-95h30v190h-30v-95zm170 80-12-15h10c5 0 12 7 16 15 3 8 4 15 2 15s-9-7-16-15zm145-80v-95h30l-2 92-1 93-14 3-13 3v-96zm313 89-8-7V100h25l-3 67c-1 38-4 81-5 96l-2 29-7-8zm67-5c-11-17 1-21 15-4l12 15h-10c-6 0-14-5-17-11zm3-90-18-10v-58l21-11c26-14 35-7 14 10-19 16-19 44 1 64 17 18 8 21-18 5z"/></g></g></svg>