<?xml version="1.0"?><svg version="1.2" baseProfile="tiny-ps" viewBox="0 0 300 300" xmlns="http://www.w3.org/2000/svg" xmlns:xlink="http://www.w3.org/1999/xlink"><title>theofficialtycoonmedia</title><g><g fill="#fbfbfb" transform="matrix(.1 0 0 -.1 0 300)"><path d="M0 1500V0h3000v3000H0V1500z"/></g><g fill="#d1d1d1" transform="matrix(.1 0 0 -.1 0 300)"><path d="M1660 2303c-77-10-343-65-475-98-344-87-647-190-826-281l-105-54-43-37-44-37-18-40-19-41v-68l35-73 34-73 32-16 31-17 27 7c14 4 33 13 41 20 28 25 300 144 300 131 0-2-30-72-66-157s-79-194-95-242l-30-88-1-50v-49l32-63c18-34 42-72 53-85l21-22 36-11 37-11 28 15 28 14 36-71 36-71 31-8 31-9 37 17 37 18 27-26c15-14 39-29 54-32l28-7 25 6 26 7 19 32 20 32v35c0 19 4 40 8 47 11 17 84 48 357 151 442 166 794 280 954 307l85 15 25-24c14-13 41-31 60-41l34-17 43-1h44l26 24 26 24-6 43c-3 23-9 61-12 85l-6 42 30 90c17 50 49 143 71 208l41 118 7 59 6 58-36 75-36 76-23 15c-13 8-37 17-54 21l-32 6-34-14-35-15-24 14-24 13-60 1h-60l-35-19c-19-11-58-32-87-47l-51-27-32 26c-17 15-42 30-56 33l-24 6-38-7-37-7-40-42c-22-23-47-45-57-49l-16-6 14 27c21 41 20 49-34 147l-27 49-34 20-35 20-85 2c-47 1-102 0-121-3zm211-91 22-19-6-16-6-17h-40c-52 0-220-32-396-76-208-52-529-144-539-155l-10-9h21c12 0 25-5 28-10l6-10-140-323c-170-393-206-480-220-534l-12-43h-9c-17 0-49 38-56 66l-7 26 17 61c21 75 94 253 220 537 52 118 93 216 91 219-5 4-215-69-215-75 0-1 32 0 70 3l70 6v-18l-74-17c-92-21-287-96-382-148l-72-38-11 11-11 11v76l37 41 37 41 131 63c263 127 750 274 1125 340l135 23 86 1 87 1 23-18zm695-114c2-3-17-44-42-92-42-84-53-129-17-75 9 13 46 54 82 91l66 66 29 8 29 7 16-10c9-6 20-22 25-36l9-25-16-65c-9-36-40-134-70-219-31-85-61-182-67-215l-12-62 10-28c5-15 13-37 18-47l7-19-33 6-33 7-33 25-33 26-13 40-12 41 12 57c7 31 33 110 58 176s52 139 60 162l13 43-8 4c-4 3-17-5-29-17-36-39-130-197-152-255l-21-56 5-22 6-22-16-6c-26-10-53-7-83 9l-29 14-11 32-11 32 15 56c8 31 32 101 55 155 22 55 40 101 40 102 0 2-26-10-57-25-68-34-125-51-171-51h-33l-25-53c-13-30-27-74-30-98l-6-45 16-13 16-13 24 15 24 16 15 48c9 26 19 67 22 91 8 48 5 46 40 30l25-11v-17c0-35-40-170-63-217-28-53-70-97-105-108l-22-6-35 11-34 11-27 32-27 32 6 65c5 57 27 143 52 204l8 19-19-7c-10-4-45-12-76-18-32-6-58-13-58-17s12-13 26-20l26-11-7-53c-4-28-18-86-31-127l-23-75-29-46c-16-25-42-55-57-67l-28-22h-29c-38 0-84 24-100 53-6 12-14 39-17 60l-6 39-94-121c-51-67-102-126-112-131-10-6-31-10-48-10h-30l-28 24-27 24 1 38 2 39 36 105c20 58 60 155 89 215l54 110 45 49 46 49 37-6 36-6 19-17 19-17v-74l-21-27c-11-14-27-26-35-26h-15l11 19c12 23 13 61 2 61-13 0-88-137-132-242l-40-96v-52h28l91 97 90 97 17 54c22 68 75 158 119 200 19 18 35 37 35 42s7 16 16 24l15 16h58l15-22c9-12 16-31 16-42v-19l43 6c60 9 145 36 157 50 6 7 20 25 31 40l21 28 32-3 31-3 20-33 20-32 30 5c28 5 138 56 195 91l25 15 38-5c21-2 40-6 43-8zm-1208-165c-49-96-128-270-173-382-52-131-155-409-155-419 0-2 8-1 18 3 9 4 98 36 197 72 365 131 856 271 1018 292l78 9 34-9 35-10v-27l-67-11c-206-35-891-270-1336-458l-109-46 14-8c7-5 23-9 36-9h22v-81l-15-6-16-5-18 17c-11 9-25 30-31 46l-12 29h-13c-6 0-31-14-55-31l-42-31-10 10-11 11 7 34c4 19 17 50 29 68l22 34 45 24 46 24 42 124c24 69 42 127 40 128-2 2-25-31-51-73s-54-86-63-97l-15-20-17 11c-9 6-28 26-40 45l-24 34 6 48c13 118 162 499 216 556 26 26 79 51 110 51 25 0 25-5-1-41-44-62-189-406-189-448v-21h10c22 0 131 174 244 388l72 137 39 22c22 13 51 23 63 23h24l-4-7zm412-105c-16-29-40-83-51-120l-21-67 7-21 6-20h38l19 25 20 25 17 62c9 35 17 85 18 112l2 49-12 4-12 4-31-53z"/></g><g fill="#9d9d9d" transform="matrix(.1 0 0 -.1 0 300)"><path d="M1595 2290c-427-67-1042-256-1293-396l-65-37-43-43-43-42-11-43-12-42 7-34c3-18 20-61 38-95l32-61 33-14 34-14 41 22c136 71 305 144 314 136 2-3-26-75-62-162-37-86-80-195-96-243l-29-86v-95l35-70 35-70 29-20 29-21h75l19 17 18 16v-15c0-8 14-42 30-75l30-61 32-13 31-13 37 20 37 21 31-28c18-16 43-31 57-35l25-6 31 13 31 12 14 33c8 19 14 49 14 68v36l23 14c57 36 720 279 985 360 186 58 251 74 332 86l65 9 25-24c14-13 42-31 62-39l37-16h78l27 21 26 20v70l-16 25-17 24 17 69c9 38 39 131 67 207 27 75 57 167 65 203l16 66-6 37c-3 20-21 64-39 98l-32 62-28 15-28 14-38 1c-21 0-47-5-59-11l-20-11-29 15-28 15h-96l-36-15c-21-9-44-22-53-30-8-7-34-21-57-30l-43-17-30 26-31 25-32 6-33 6-41-16-42-17-25-33-25-32-20-6-21-5 10 18c6 10 10 32 10 48v30l-30 61-30 61-43 21-42 22-70 3-70 3-120-19zm275-79c14-10 25-24 25-32v-13l-95-12c-52-7-149-24-215-39-213-47-639-164-675-185l-15-9 23-1h23l5-13 5-13-72-164c-186-431-251-585-273-652l-25-73-14-3-15-3-22 28-22 28 5 50 5 50 45 115c24 63 95 229 156 367 61 139 111 257 111 262v10l-84-29c-47-15-93-33-103-40l-18-11 20 5c11 2 39 7 61 11l42 6 7-11 8-12-14-9c-8-5-26-9-41-9-54 0-373-124-438-170l-31-22-14 6-15 5v101l41 40 41 40 112 54c343 168 1183 390 1396 370l45-4 25-19zm690-111 15-9-18-28c-23-36-69-134-64-139 2-2 25 22 51 54 26 31 66 72 88 90l41 32h57l16-25 17-26-7-46c-3-25-38-140-77-255l-71-209-1-54-1-55 12-12c7-7 12-18 12-26v-14l-32 6c-43 9-75 31-98 69l-20 32v41c0 51 19 115 81 276 27 70 49 137 49 149v21l-15-12c-23-19-99-138-140-220l-37-74-2-40-2-41-40-3-40-3-27 21-26 21-6 32-6 32 26 85c15 47 40 113 56 148s25 62 21 60c-42-17-151-62-167-68l-20-8 29-13 28-13-7-50c-9-70-41-163-75-216l-29-45-29-18c-37-21-64-22-108-1l-35 17-16 30-16 31 6 66 6 66 21 63c11 35 19 65 17 67-2 3-34-1-71-8l-67-13 28-22 28-22-18-88-18-88-33-70-33-70-32-33-33-32h-88l-32 29-32 28-5 47-6 47-62-83c-33-46-80-104-103-131l-42-47h-80l-29 30-30 29 7 38c12 73 75 246 127 351l52 107 46 48 45 47h28c15 0 40-7 55-15l29-14 6-25 6-25-16-41-16-41-20-10-20-11-6 7-6 6 12 19c7 11 12 30 12 42l-1 23-20-25c-46-54-159-305-159-350v-20h13c17 0 172 167 191 204 8 17 30 66 49 108l35 77 40 43c21 24 45 53 51 66l12 23 25 9 25 10 21-11 20-11 14-35 15-35 34 6c18 4 57 13 85 22l51 15 17 18c9 10 25 28 35 40l18 22 37-3 36-3 16-30 17-34c4-7 128 41 173 68 25 14 52 29 60 33 22 10 73 9 90-2zm-1200-164c0-2-20-43-44-92-72-146-276-658-276-693 0-16 10-14 107 23 358 136 966 312 1148 331l60 7 28-11 27-11v-14c0-16-21-26-55-26-116 0-932-281-1409-485l-39-17 14-9c8-5 23-9 34-9h20l-3-45-4-45h-36l-26 31c-14 17-26 37-26 45 0 20-10 18-63-16-26-17-52-30-57-30h-10v67l23 42 22 42 49 27 49 27 43 123c24 67 41 122 39 122s-27-38-56-85c-58-96-61-99-89-90l-19 6-22 35-22 36 6 51c10 103 123 411 190 520l29 48 39 19c21 11 50 20 64 20h27l-4-7c-2-5-33-69-70-143-65-133-138-314-138-345s20-13 68 58c54 79 163 270 205 358 36 74 63 108 101 125 29 12 76 19 76 10zm736-81c-15-30-29-74-32-98l-6-43 15-12 14-12 17 6 17 6 19 38c19 38 42 148 33 163-2 4-15 7-28 7h-24l-25-55zm-321-23c-41-62-70-156-66-215l1-18 22 3 22 3 22 38c20 37 35 93 49 185l7 42h-32l-25-38z"/></g><g fill="#707070" transform="matrix(.1 0 0 -.1 0 300)"><path d="M1700 2304c-235-30-616-121-921-220-282-92-432-157-547-238l-44-31-25-43-25-43-1-47v-47l28-55c16-30 37-65 48-77l20-23h66l48 30c43 27 284 131 290 126 1-1-29-75-68-165-38-89-83-202-99-251l-30-88v-84l37-76 38-75 30-18 30-19h61l21 15 21 15 7-29c3-16 13-35 21-42 8-6 14-19 14-28v-18l23-21 23-22h70l20 15 21 14 23-24c13-13 37-29 55-35l32-11 24 10c13 5 32 18 42 29l18 20 6 56 6 55 76 32c413 173 1103 401 1275 423l48 6 32-27c17-14 45-32 63-40l32-13h82l24 25 25 24v57l-16 23-16 23 6 41c4 23 38 135 77 250l71 207 1 58 1 57-32 61-31 62-27 21-27 21h-38c-21 0-49-4-63-10l-25-9-38 16-38 15-54-5-55-6-26-19c-34-25-106-62-121-62-7 0-20 7-30 16s-34 22-55 29l-37 12-36-8-36-8-37-40c-21-22-47-42-58-46l-22-7 11 20c6 12 11 34 11 51v30l-25 48c-31 57-51 81-88 99l-28 15-62 3c-34 2-78 2-97 0zm142-74 38-11 11-21 11-20-9-7c-4-4-48-13-98-20-166-22-553-118-865-214l-35-11 30-6 30-6-3-15c-2-8-66-158-142-334-155-358-220-518-220-541v-15l-17-6-16-6-25 28-24 29 4 50 5 51 38 100c20 55 91 221 156 369 66 148 117 271 115 274-3 2-44-10-93-27l-88-30 58 6 59 6-4-19-3-19-25-3c-78-8-293-87-420-153l-79-41-10 6c-5 4-12 19-16 35l-6 29 15 35 14 36 44 31c193 141 864 358 1333 430 142 22 187 23 237 10zm82-95-6-15-22-4c-11-3-50-7-85-10-105-10-594-127-797-191l-19-7 15 10c60 38 740 202 839 202h37l20 15c24 18 25 18 18 0zm645-39 12-14-11-7c-12-7-83-145-78-150 2-2 25 23 51 56 27 33 67 73 89 89l41 30h66l11-19c24-46 8-117-85-380l-48-134-5-63-5-63 16-25c28-42-11-50-73-15l-38 22-18 32-17 32 5 64 5 64 62 159c61 160 69 186 52 186-14 0-104-139-147-225l-37-75-1-38-2-37-42-3-42-3-30 30-30 29v29c0 38 21 109 65 217 19 48 35 89 35 92 0 2-21-6-47-20-27-13-67-30-91-37l-44-13 28-14 27-14-6-51c-6-63-37-153-72-213l-27-45-31-20-32-19h-60l-32 20c-17 10-37 29-44 41l-12 23 6 75 5 76 21 59c11 33 19 61 17 64-2 2-21-1-43-7-21-6-51-11-68-11h-30l29-23 29-24-7-52c-4-29-18-88-32-131l-24-78-33-49-32-48-37-18-38-19-33 11-34 11-26 28-26 27-3 40-3 40-81-106c-45-58-96-118-114-133l-33-27-31 7-31 6-28 27-29 26 6 41c19 145 162 455 245 532l24 22h28c15 0 39-4 53-10l26-10 12-25 11-25-11-38-12-39-20-18-19-17-16 6-16 6 15 22c18 25 21 48 6 48-22 0-151-268-165-343l-7-37h11c11 0 144 134 179 180 10 14 29 54 42 89 24 66 95 181 111 181 5 0 20 18 33 39l25 39 21 7 21 7 25-17 26-16 10-30 10-29 26 6c15 3 57 14 94 25l68 19 15 31 16 30 27 10 26 10 23-10 22-10 16-31 16-31 22 6c12 4 65 28 117 55l95 48 41 1 42 1 11-14zm-1260-273c-85-172-278-667-266-680 2-2 64 19 138 46 294 107 711 235 940 287l114 26 77 2 77 1 18-18 18-18-15-9c-8-5-27-10-42-10-112 0-906-268-1341-453l-122-51 36-9 37-8-5-42c-3-23-9-46-13-50l-8-9-20 13c-12 7-29 29-39 49-10 19-19 37-20 39s-24-11-51-28-54-31-60-31h-12v65l19 42 19 42 53 30 53 30 38 108c20 59 37 112 38 117 0 5-24-29-53-75l-52-84-18-3-18-4-19 17c-11 10-26 36-35 59l-16 41 30 107c64 226 164 448 222 490l26 19 41 6 42 6v-16c0-9-5-19-11-23-24-14-177-364-194-441l-7-33h10c21 0 160 226 255 415l45 90 23 21c36 32 61 43 95 44h30l-57-117zm-189-43c-6-11-13-20-16-20-2 0 0 9 6 20s13 20 16 20c2 0 0-9-6-20zm-470-34c-132-40-317-118-370-156-15-11-36-20-47-19l-18 1 20 6c11 4 40 19 65 34 89 53 359 158 405 157 11 0-14-10-55-23zm913 11-5-8-18 6-17 6-13-31c-7-17-15-29-17-26-2 2 2 18 11 34l15 30 25-2 24-1-5-8zm648-150-12-12 7 18c3 10 9 15 12 12s0-11-7-18zm-20-35c-5-9-19-26-32-37l-23-20 30 37c32 41 40 48 25 20zm249-21c0-5-10-11-22-14l-23-6 19 14c23 17 26 18 26 6zm-431-57c14-12-19-1-35 12l-19 15 25-12c14-6 27-13 29-15zm-499-54c-17-22-34-40-37-40-2 0 10 18 27 40s34 40 37 40c2 0-10-18-27-40zm310 27c0-2-12-14-27-28l-28-24 24 28c23 25 31 32 31 24zm620-42-12-15-22 1-21 1 20 5c11 3 24 9 30 14 15 14 19 10 5-6zm-781-26 26-7-18-1c-18-1-77 25-77 35 0 2 10-1 22-7s33-15 47-20zm701 4c-162-27-734-217-1128-374-213-86-227-91-217-81 6 6 86 40 178 77 484 191 1074 386 1162 383l30-1-25-4zm-926-58c-20-25-40-45-44-45s11 20 33 45 42 45 44 45c3 0-12-20-33-45zm1222 0-20-15-25 1-26 1 33 8c18 4 36 10 39 14 4 3 9 6 12 6s-3-7-13-15zm-1328-62c-10-2-26-2-35 0l-18 5h70l-17-5zm-487-191c-7-2-18 1-23 6l-11 11 24-6 23-7-13-4zM610 965l-12-15-27 1h-26l35 13c19 8 37 14 39 15 2 0-2-6-9-14zm250-89c0-2-17-15-38-30l-38-26h-21c-12 0-24 4-27 8l-5 8 27-3 27-4 34 25c35 26 41 29 41 22zm130-71-12-15h-29c-15 0-30 4-33 8l-5 8 34-4 33-4 6 11c4 6 10 11 13 11s0-7-7-15zm1112 1060c-12-25-27-66-32-90l-10-44 6-15 6-16h18c38 0 80 90 80 172v38h-46l-22-45zm-316-17c-8-13-27-50-42-83l-27-59-5-47-4-46 12-8 11-7 24 22 24 23 16 46c9 25 19 76 22 114l6 67h-11c-6 0-18-10-26-22z"/></g><g fill="#3e3e3e" transform="matrix(.1 0 0 -.1 0 300)"><path d="M1635 2294c-385-55-1017-242-1287-381l-87-44-46-41c-25-22-52-53-60-69l-15-28v-98l31-61 31-62 21-15c12-8 31-15 43-15h22l78 42c72 39 265 120 271 114 2-2-30-81-71-177-82-194-126-324-126-372v-33l34-70 33-70 32-27 33-27h64l19 14 19 13 29-61c16-33 36-69 45-79l15-17h68l23 15 23 16 33-31 32-30h85l18 20 18 20 11 61 11 61 69 29c133 57 573 218 796 292 194 65 334 104 493 137l38 7 30-28c16-15 50-35 74-45l45-17 37 6 38 6 18 22 17 21v25c0 14-8 38-17 54l-17 29 12 60c7 34 35 122 62 196 61 166 80 238 80 301v50l-31 62-31 63-32 19-31 19h-33c-18 0-42-5-52-10l-20-11-50 17-51 16-38-6-39-6-87-45-87-46-26 26c-31 31-60 39-115 32l-42-6-36-40-36-40-28-7-28-7 16 24 17 23v26l-1 25-32 59-32 59-28 21-28 21-107 1c-59 1-120 0-137-2zm225-72 35-17v-40l-90-13c-177-25-769-173-870-217l-30-13 28-1c15-1 27-4 27-7s-79-188-175-412-180-428-187-454l-12-48h-35l-22 23-21 22 5 61 4 61 56 139c31 76 101 240 156 364 55 123 98 226 96 228-4 4-165-48-165-53 0-2 18-1 40 2 21 3 47 3 56-1l17-7-11-11c-7-7-38-18-70-24-78-16-236-76-361-136l-104-51-14 18c-7 11-13 31-13 45v27l23 34 23 34 54 37c168 113 697 289 1140 378 212 43 235 46 325 48l60 2 35-18zm71-81-12-21-22-4c-12-3-58-10-102-16-117-16-366-73-591-135l-197-55-13-18-13-17 6 22 5 22 82 25c253 77 616 162 742 175l89 9 15 20c19 25 25 21 11-7zm637-40 14-8-26-39c-14-22-32-57-41-79l-17-40 66 71 65 71 35 17 34 16 25-9c29-11 37-29 37-84v-42l-70-205-71-205-6-62-6-62 17-25c22-34 21-36-15-36h-32l-34 21-33 21-17 31-16 32v46l1 47 17 53c10 30 39 111 66 181 50 130 55 148 41 148-11 0-105-145-143-220l-33-65-5-45-6-45-39-3-40-3-22 11c-26 14-44 50-44 89 0 29 43 162 79 244 12 27 21 50 21 51s-26-10-57-25c-32-16-73-31-91-35l-33-6 29-18 30-18-13-69c-22-115-68-210-121-252l-27-21h-72l-32 20c-17 10-37 29-44 41l-12 23 6 80 5 81 21 54c11 30 19 56 18 58-2 1-19-2-38-7-18-6-46-10-61-10h-28v-8c0-5 11-14 24-20l25-11-5-38c-3-21-15-72-25-113l-20-74-31-59-31-58-29-25c-16-13-41-27-54-30l-25-6-39 17-40 18-15 23-15 23v38l-1 38-17-21c-9-12-53-67-96-122l-79-101-28-11-28-12-35 12-36 12-15 21-15 21v29c0 16 16 77 35 136l36 106 58 120 59 120 39 43 40 42h80l27-21 26-20v-25c0-32-23-85-43-103l-17-13-15 6-16 6 15 22c18 25 21 48 7 48-12 0-122-217-151-298l-23-63 10-10 10-10 95 100 95 101 13 42c7 24 25 69 41 101l30 58 39 39c22 22 40 43 40 47s10 17 22 30l21 23h47l20-20c11-11 22-31 26-45l6-25 27 6c123 28 156 42 177 79 6 11 23 27 37 35l27 15 28-15 27-16 13-27 13-27 64 25c74 28 101 41 134 66l24 19h46c25 0 52-4 59-9zm229-123-5-13-1 19c-1 11 2 17 5 13 3-3 4-12 1-19zm-1427-44c0-2-11-19-24-39-45-66-316-738-303-751 2-3 17 1 33 7 242 95 660 228 944 301l195 49 80 6 80 5 24-19 24-20-7-11-7-12h-29c-83 0-541-143-965-302-228-85-511-201-499-204 5-1 22-5 37-9l29-6-7-42c-4-23-11-46-16-51l-8-9-24 16-24 15-13 31-12 31h-13c-6 0-32-13-56-29l-43-30-9 6-9 6 4 48 5 48 26 34 25 33 41 18 40 19 22 66c12 36 30 89 40 116l19 50-13-18c-6-11-30-47-52-80l-40-62-18-3-18-4-16 14c-9 7-25 32-35 55l-19 42 15 63c38 161 160 464 209 516 30 33 70 52 107 52h30v-10c0-6-11-27-24-48-52-83-196-435-183-449 15-14 136 177 252 397l64 122 23 17c39 28 118 45 118 25zm1407-36-5-13-1 19c-1 11 2 17 5 13 3-3 4-12 1-19zm-477-2c0-3-4-7-9-11l-10-5-6 10-6 10h15c9 0 16-2 16-4zm-1173-108c-18-31-48-90-67-132-18-42-35-75-37-72-5 5 69 166 103 224 14 24 28 42 30 39 2-2-11-29-29-59zm1584-84c-28-76-50-134-50-127-1 15 91 275 95 270 2-2-18-66-45-143zm-1975 67c-3-5-23-12-43-16-86-16-401-148-418-175l-6-10h-57l-12 16-13 15 26-12 26-12 50 31c94 58 368 165 439 171l13 1-5-9zm834-12v-11l-24 4-25 5-37-83c-21-46-40-81-42-79-3 2 14 43 36 90l41 85h51v-11zm901-90c-11-24-20-41-20-37-1 12 31 89 35 85 3-2-4-24-15-48zm-254-56c-27-52-70-103-87-103h-11l33 33c18 18 44 54 58 79 13 26 26 45 28 43 2-1-8-25-21-52zm-347-57c-11-26-33-66-49-90l-30-43-19-5-19-5 37 37 37 37 27 56c14 31 26 62 27 69l1 13 4-11c3-6-4-32-16-58zm448-15c-6-2-22 9-37 24l-26 27 36-24 36-23-9-4zm112-1c-16-11-40-13-40-5s44 24 50 18c2-2-2-8-10-13zm227-2-5-13-1 19c-1 11 2 17 5 13 3-3 4-12 1-19zm-649-38 27-8-25-1-26-1-34 31-35 31 33-22c18-12 45-26 60-30zm639-12-5-13-1 19c-1 11 2 17 5 13 3-3 4-12 1-19zm-1158-79c-61-78-102-119-121-119-5 0 7 14 26 31 19 16 59 61 88 100 29 38 57 69 61 69 5 0-20-36-54-81zm162-4 44-14h-23c-31-1-72 21-102 56l-25 28 31-28 32-28 43-14zm-471 8-12-18 6 18c3 10 6 24 7 30l1 12 4-12c3-7 0-20-6-30zm1270 17-10-19-38-6c-199-29-741-207-1221-399-90-37-166-64-169-61-8 8-8 8 183 83 497 196 1017 368 1169 387l58 7 11 14c7 7 16 13 20 14h8l-11-20zm97-69c12-6 39-11 59-11h37l21 18 20 17-16-25-16-25-45 1h-45l-35 24c-19 13-40 33-47 44l-13 21 29-26c16-15 39-32 51-38zm-1388-10c-6-18-13-30-15-28s1 18 7 36 13 30 15 28-1-18-7-36zm108-50c12-6 37-11 55-12h33l-20-8-20-8-30 8-30 9-30 32-30 32 25-21c14-11 35-26 47-32zm-143-45c-9-26-18-45-20-43s3 25 12 51 18 45 20 43-3-25-12-51zm-444-107c-27-68-50-131-50-139 0-9-7-26-16-38l-15-22h-55l-30 32-29 32 33-27c19-15 41-27 49-27 21 0 53 29 53 48 0 18 101 274 107 269 2-2-19-60-47-128zm151-43 34-15-22-1h-22l-28 26c-15 15-21 22-12 16 8-7 31-18 50-26zm-80-39-11-11v15c0 9 3 19 7 23l8 7 3-11c3-7-1-17-7-23zm109-194c-1-5-17-18-36-30l-35-23h-47l-12 16-13 15 26-12 27-12 37 26c40 27 53 32 53 20zm86-73c9 0 24 5 35 10l19 11v16c0 9 3 14 6 10 3-3 3-15-1-27l-7-21-24-9-24-10-25 12c-14 6-32 23-42 37l-17 26 33-28c18-15 39-27 47-27zm1170 1087c-24-36-46-107-46-148v-39h37l15 18c20 22 48 115 48 159v33h-40l-14-23zm3-96c-7-23-14-39-16-37-3 2 1 23 8 45 7 23 14 39 16 37 3-2-1-23-8-45zm-344 36c-31-54-65-151-65-188v-28l11-6 10-7 19 17c11 10 29 43 40 73l21 56 6 63 6 63h-11c-6 0-23-19-37-43z"/></g><g fill="#040404" transform="matrix(.1 0 0 -.1 0 300)"><path d="M1545 2275c-475-84-1077-277-1275-408l-64-42-30-38-30-37-3-58-4-57 15-25c8-14 23-44 34-67l20-41 20-11c12-6 30-11 42-11h22l56 34c62 38 281 130 289 122 3-2-26-78-65-168-38-90-82-199-97-243l-28-80-1-51-1-50 29-60c16-32 41-71 54-86l26-28 32-6 32-6 23 13c13 6 27 16 30 22l7 10 7-31c3-17 13-36 21-43 8-6 14-20 14-31v-19l25-24 24-25h27c14 0 39 8 54 17l28 16 37-31 36-32h70l23 23 23 23 6 52c3 29 9 57 12 62 12 20 558 224 890 333 240 78 330 104 432 121l78 14 37-33 37-34 42-11 43-12 29 9 30 8 21 28 20 27-13 33c-8 17-16 49-18 69l-5 37 73 213 74 213v153l-17 19c-10 11-18 25-18 32s-9 26-21 42l-20 28-40 12-39 12-40-12-40-12-46 16-47 16-44-7-44-6-37-26c-20-13-57-33-81-44l-44-19-28 27-27 26-45 5-44 5-31-16c-17-9-41-30-53-46l-22-29-29-10-28-10v7c0 4 7 16 15 26l15 20v53l-20 26c-11 14-20 31-20 39 0 7-7 24-16 37l-17 23-41 19-41 19-85-1-85-1-130-23zm334-59 21-19v-36l-47-6c-113-14-187-28-333-62-162-37-506-131-575-157l-40-15h28l27-1v-10c0-5-61-150-136-322-158-363-219-512-229-556-3-18-11-34-16-38l-10-6-24 16-23 15-12 36-12 36 27 87c25 81 136 347 254 611l51 113-13-5c-6-2-39-13-72-23l-60-19 40-5 40-5v-29l-45-8c-25-4-94-24-155-45l-110-37-113-57-113-56-16 15-15 16 5 44 5 44 33 35c129 133 754 347 1314 449l130 23 86-2 87-2 21-19zm44-87-18-18-90-11c-117-14-339-64-595-134l-205-56-18-23-18-22 6 25c4 14 10 28 14 32 20 21 561 159 741 188 74 12 145 24 157 26l22 4 7 23 8 22 4-19 4-18-19-19zm651-28 6-9-41-76-41-76 79 79 78 80 28 6 27 7 25-16 25-16v-115l-51-145c-74-210-88-259-95-316l-6-50 17-34 17-33-12-7-13-8-31 9c-44 13-78 40-99 80l-18 34 6 54 5 53 66 175c36 97 63 177 61 180-12 11-117-151-163-252l-26-56 4-31 5-30-26-10-26-10-37 12-37 11-16 22-15 21v86l41 108c22 59 43 115 46 125l6 19-34-18c-19-9-58-25-88-34l-54-17 32-11 31-11v-13c-1-35-31-149-53-199-13-30-39-71-56-91l-32-37-34-11-33-11-34 14c-38 17-73 52-83 85l-6 22 11 77c7 43 20 98 30 123l18 46-56-12c-32-7-59-13-61-13-2-1 6-9 18-18l22-18-15-75c-8-41-27-109-42-150l-28-74-46-48-46-48h-27c-15 0-43 6-62 14l-35 15-20 33c-11 18-20 43-20 56v23l-76-98c-41-54-89-110-105-125l-29-28h-26c-33 0-81 25-94 49-5 11-10 33-10 50v31l36 107c19 60 60 158 89 218l54 110 44 50 44 49 38-1 38-1 26-20 26-20-1-46v-46l-24-25-23-25h-19c-22 0-22 3-2 41 8 17 13 33 11 36-15 14-135-221-158-309l-13-47 8-8 8-8 88 94 88 94 22 61c29 80 62 136 116 197 24 27 44 54 44 60 0 5 11 14 24 20l25 12 26-7 26-7 16-34 17-35h22c12 0 50 9 84 19l62 19 37 41 38 41h24c31 0 42-8 65-46l19-32 65 26c36 14 85 38 110 54l45 28h104l5-9zm156-351c-39-114-75-230-80-256l-9-49 4 57 4 58 46 132c65 182 95 284 97 327l2 36 3-48 4-48-71-209zm-1366 185c0-5-26-62-57-125-60-124-153-352-223-547l-43-122 97 36c294 107 630 213 892 280l175 45 90 5 90 5 19-15 19-14-6-15-5-15-50-7c-174-23-904-270-1322-447l-125-53 30-6 30-5 3-32 3-32-11-21c-6-11-17-20-24-20-14 0-49 37-72 76l-12 19-46-32c-54-38-62-40-71-13l-6 19 10 38c15 53 36 80 93 116l49 32 34 98c19 53 33 97 31 97s-22-31-47-70c-24-38-50-72-57-75l-14-5-33 33-33 33-7 37-7 37 35 118c45 147 125 347 166 411l32 49 32 15c18 8 43 17 57 20l25 6 15-9 14-9-17-18c-39-44-198-414-197-460l1-18 25 30c36 44 155 246 210 356 25 52 56 107 67 123l20 28 41 19c23 10 50 18 61 16l20-2-1-10zm940-40c-7-16-34-21-34-6 0 9 16 18 32 20l7 1-5-15zm-1141-53c-3-9-12-24-19-32s-38-68-70-132c-32-65-59-116-62-114-6 7 84 204 113 248 14 21 25 42 25 48v11l10-6 9-6-6-17zm1121 3c-4-8-8-15-10-15s-4 7-4 15 4 15 10 15h9l-5-15zm-1544-73c0-4-30-16-67-26-94-25-252-89-352-142l-85-45-25 19c-14 10-27 25-29 32l-5 15 17-18c25-25 46-21 128 22 154 83 418 173 418 143zm830-12v-10h-47l-37-80c-21-44-42-83-47-86l-10-6 16 38c8 20 27 64 42 96l26 58h57v-10zm919-52c-12-29-25-62-29-73l-9-20v20c-1 21 44 125 53 125 3 0-4-24-15-52zm-267-90c-10-24-31-58-46-75l-28-33h-31l39 43c22 23 48 62 59 86l19 44 4-11c2-6-5-30-16-54zm-361-83-41-84-27-20c-14-12-32-21-39-21h-14l40 36 40 36 29 62c16 33 32 70 36 81l7 20 5-13 5-14-41-83zm454 21 30-15-18-1c-30 0-56 19-73 53l-16 32 24-27c13-14 37-33 53-42zm-310-51 40-13-17-7-16-6-30 15c-30 16-82 70-82 87 0 5 15-7 33-27l32-35 40-14zm435 40-12-15h-24c-12 0-26 5-29 10l-6 10h23c13 0 30 4 38 10 20 12 26 4 10-15zm-871-86 26-30 53-18 53-18-19-5-20-6-39 18-39 17-21 28-20 28-69-87-69-86-46-15-47-16-27 7-27 7-34 34c-45 44-44 60 0 18l35-33 35-6 35-7 34 14 34 15 68 86c37 47 71 86 73 86 3 0 17-14 31-31zm-374-6c-11-47-86-247-96-258-16-16-10 2 43 146 49 132 68 172 53 112zm1325-73 33-23 47-5 47-4 17 23 16 23v-16c0-9-7-24-16-32l-15-16h-70l-39 20-38 20-22 30-21 30-22-15-21-15h-28c-102 0-786-226-1237-410-69-27-131-50-138-50h-14l6 9c3 6 87 42 188 82 502 198 1084 389 1185 389h30l23 19 24 19 16-28c9-15 32-38 49-50zM687 1154c-29-76-58-152-63-168l-9-29-20-7-21-8-31 13-32 13-17 34-17 33 31-32 30-33h58l12 12c7 7 12 20 12 30 0 24 113 305 117 292 2-6-20-73-50-150zm101-16 26-28h57l-6-10c-3-5-16-10-29-10h-22l-26 28c-26 28-48 64-48 79 0 4 6-1 12-12s22-32 36-47zm-38-74c-18-21-24-10-9 18l12 23 5-13c2-7-2-19-8-28zm265-191c-4-27-14-58-21-70l-14-23h-53l-38 40-38 40-37-25c-20-14-41-25-47-25-14 0-47 31-47 44v11l9-14 9-13h49l31 22 30 23 40-42 39-41h18c10 0 27 7 37 17l18 16v28c0 28 9 59 17 59 2 0 1-21-2-47zm1083 972-29-64 3-38 3-38h40l22 45 22 45 7 51 6 51-22 6-22 6-30-64zm22-55-19-55-1 22c0 26 32 112 37 97 2-5-6-34-17-64zm-360-2-40-83-6-47-7-48h43l20 32c21 35 50 149 50 197v31h-10c-5 0-27-37-50-82zm9-79c-7-19-16-38-21-44l-10-10 7 25c14 47 26 73 30 68 3-3 0-20-6-39z"/></g></g></svg>